<svg width="200" height="200" viewBox="0 0 200 200" fill="none" xmlns="http://www.w3.org/2000/svg">
  <defs>
    <linearGradient id="dhyanaGrad" x1="0" y1="0" x2="200" y2="200" gradientUnits="userSpaceOnUse">
      <stop stop-color="#9B59B6" />
      <stop offset="1" stop-color="#8E44AD" />
    </linearGradient>
  </defs>
  <circle cx="100" cy="100" r="90" stroke="url(#dhyanaGrad)" stroke-width="2" stroke-opacity="0.3" />
  <!-- Lotus simple -->
  <path d="M100 140 C100 140 140 120 140 100 C140 80 100 60 100 60 C100 60 60 80 60 100 C60 120 100 140 100 140 Z" fill="url(#dhyanaGrad)" fill-opacity="0.3"/>
  <path d="M100 140 C100 140 120 125 120 110 C120 95 100 80 100 80 C100 80 80 95 80 110 C80 125 100 140 100 140 Z" stroke="url(#dhyanaGrad)" stroke-width="2"/>
  <circle cx="100" cy="50" r="5" fill="url(#dhyanaGrad)" />
</svg>
